<svg width="512" height="512" viewBox="0 0 512 512" fill="none" xmlns="http://www.w3.org/2000/svg">
  <!-- Resume Document -->
  <rect x="80" y="100" width="240" height="320" rx="20" fill="#1e3a8a" stroke="#0ea5e9" stroke-width="8"/>
  
  <!-- Person Icon -->
  <circle cx="180" cy="180" r="30" fill="#0ea5e9"/>
  <path d="M 150 230 Q 150 210 180 210 Q 210 210 210 230 L 210 240 L 150 240 Z" fill="#0ea5e9"/>
  
  <!-- Resume Lines -->
  <rect x="130" y="270" width="140" height="10" rx="5" fill="#0ea5e9"/>
  <rect x="130" y="295" width="140" height="10" rx="5" fill="#0ea5e9"/>
  <rect x="130" y="320" width="100" height="10" rx="5" fill="#0ea5e9"/>
  
  <!-- AI Circuit Lines -->
  <path d="M 320 200 L 360 200 L 360 240" stroke="#0ea5e9" stroke-width="8" stroke-linecap="round"/>
  <path d="M 320 260 L 380 260 L 380 300" stroke="#0ea5e9" stroke-width="8" stroke-linecap="round"/>
  <path d="M 320 320 L 350 320 L 350 360" stroke="#0ea5e9" stroke-width="8" stroke-linecap="round"/>
  <path d="M 320 380 L 370 380" stroke="#0ea5e9" stroke-width="8" stroke-linecap="round"/>
  
  <!-- AI Nodes -->
  <circle cx="360" cy="160" r="16" fill="#0ea5e9"/>
  <circle cx="400" cy="220" r="16" fill="#0ea5e9"/>
  <circle cx="380" cy="300" r="16" fill="#0ea5e9"/>
  <circle cx="360" cy="380" r="16" fill="#0ea5e9"/>
  <circle cx="350" cy="360" r="16" fill="#0ea5e9"/>
  
  <!-- Connection Lines -->
  <line x1="320" y1="160" x2="344" y2="160" stroke="#0ea5e9" stroke-width="6"/>
  <line x1="320" y1="220" x2="384" y2="220" stroke="#0ea5e9" stroke-width="6"/>
</svg>
